<svg width="80" height="45" viewBox="0 0 80 45" fill="none" xmlns="http://www.w3.org/2000/svg">
<g clip-path="url(#clip0_293_94)">
<path d="M9.84472 31V13.5455H16.3902C17.7311 13.5455 18.8561 13.7955 19.7652 14.2955C20.6799 14.7955 21.3703 15.483 21.8362 16.358C22.3078 17.2273 22.5436 18.2159 22.5436 19.3239C22.5436 20.4432 22.3078 21.4375 21.8362 22.3068C21.3646 23.1761 20.6686 23.8608 19.7481 24.3608C18.8277 24.8551 17.6941 25.1023 16.3476 25.1023H12.0095V22.5028H15.9214C16.7055 22.5028 17.3476 22.3665 17.8476 22.0938C18.3476 21.821 18.7169 21.446 18.9555 20.9688C19.1998 20.4915 19.322 19.9432 19.322 19.3239C19.322 18.7045 19.1998 18.1591 18.9555 17.6875C18.7169 17.2159 18.3447 16.8494 17.839 16.5881C17.339 16.321 16.6941 16.1875 15.9044 16.1875H13.0066V31H9.84472ZM32.5374 25.4943V17.9091H35.6226V31H32.6312V28.6733H32.4948C32.1993 29.4062 31.7136 30.0057 31.0374 30.4716C30.367 30.9375 29.5403 31.1705 28.5573 31.1705C27.6993 31.1705 26.9408 30.9801 26.2817 30.5994C25.6283 30.2131 25.117 29.6534 24.7476 28.9205C24.3783 28.1818 24.1937 27.2898 24.1937 26.2443V17.9091H27.2789V25.767C27.2789 26.5966 27.5062 27.2557 27.9607 27.7443C28.4153 28.233 29.0118 28.4773 29.7505 28.4773C30.205 28.4773 30.6454 28.3665 31.0715 28.1449C31.4976 27.9233 31.8471 27.5938 32.1198 27.1562C32.3982 26.7131 32.5374 26.1591 32.5374 25.4943ZM44.3722 17.9091V20.2955H36.8466V17.9091H44.3722ZM38.7045 14.7727H41.7898V27.0625C41.7898 27.4773 41.8523 27.7955 41.9773 28.017C42.108 28.233 42.2784 28.3807 42.4886 28.4602C42.6989 28.5398 42.9318 28.5795 43.1875 28.5795C43.3807 28.5795 43.5568 28.5653 43.7159 28.5369C43.8807 28.5085 44.0057 28.483 44.0909 28.4602L44.6108 30.8722C44.446 30.929 44.2102 30.9915 43.9034 31.0597C43.6023 31.1278 43.233 31.1676 42.7955 31.179C42.0227 31.2017 41.3267 31.0852 40.7074 30.8295C40.0881 30.5682 39.5966 30.1648 39.233 29.6193C38.875 29.0739 38.6989 28.392 38.7045 27.5739V14.7727ZM51.562 31.2557C50.2552 31.2557 49.133 30.9688 48.1955 30.3949C47.2637 29.821 46.545 29.0284 46.0393 28.017C45.5393 27 45.2893 25.8295 45.2893 24.5057C45.2893 23.1761 45.545 22.0028 46.0563 20.9858C46.5677 19.9631 47.2893 19.1676 48.2211 18.5994C49.1586 18.0256 50.2666 17.7386 51.545 17.7386C52.6075 17.7386 53.5478 17.9347 54.366 18.3267C55.1899 18.7131 55.8461 19.2614 56.3347 19.9716C56.8234 20.6761 57.1018 21.5 57.17 22.4432H54.2211C54.1018 21.8125 53.8177 21.2869 53.3688 20.8665C52.9257 20.4403 52.3319 20.2273 51.5876 20.2273C50.9569 20.2273 50.4029 20.3977 49.9257 20.7386C49.4484 21.0739 49.0762 21.5568 48.8092 22.1875C48.5478 22.8182 48.4171 23.5739 48.4171 24.4545C48.4171 25.3466 48.5478 26.1136 48.8092 26.7557C49.0705 27.392 49.437 27.8835 49.9086 28.2301C50.3859 28.571 50.9455 28.7415 51.5876 28.7415C52.0421 28.7415 52.4484 28.6562 52.8063 28.4858C53.17 28.3097 53.474 28.0568 53.7183 27.7273C53.9626 27.3977 54.1302 26.9972 54.2211 26.5256H57.17C57.0961 27.4517 56.8234 28.2727 56.3518 28.9886C55.8802 29.6989 55.2382 30.2557 54.4257 30.6591C53.6132 31.0568 52.6586 31.2557 51.562 31.2557ZM61.8286 23.3295V31H58.7434V13.5455H61.7604V20.1335H61.9138C62.2206 19.3949 62.6951 18.8125 63.3371 18.3864C63.9848 17.9545 64.8087 17.7386 65.8087 17.7386C66.7178 17.7386 67.5104 17.929 68.1865 18.3097C68.8627 18.6903 69.3854 19.2472 69.7547 19.9801C70.1297 20.7131 70.3172 21.608 70.3172 22.6648V31H67.232V23.142C67.232 22.2614 67.0047 21.5767 66.5502 21.0881C66.1013 20.5937 65.4706 20.3466 64.6581 20.3466C64.1127 20.3466 63.624 20.4659 63.1922 20.7045C62.7661 20.9375 62.4309 21.2756 62.1865 21.7188C61.9479 22.1619 61.8286 22.6989 61.8286 23.3295Z" fill="#C084FC"/>
</g>
<defs>
<clipPath id="clip0_293_94">
<rect width="80" height="45" fill="white"/>
</clipPath>
</defs>
</svg>
